<svg xmlns="http://www.w3.org/2000/svg" xmlns:xlink="http://www.w3.org/1999/xlink" width="64" zoomAndPan="magnify" viewBox="0 0 48 48" height="64" preserveAspectRatio="xMidYMid meet" version="1.0"><defs><g/><clipPath id="2e0f94df16"><path d="M 13 32 L 18 32 L 18 34.863281 L 13 34.863281 Z M 13 32 " clip-rule="nonzero"/></clipPath><clipPath id="372299a91a"><path d="M 5 32 L 11 32 L 11 34.863281 L 5 34.863281 Z M 5 32 " clip-rule="nonzero"/></clipPath><clipPath id="9b6fc7b2f3"><path d="M 3 12.085938 L 20.535156 12.085938 L 20.535156 20 L 3 20 Z M 3 12.085938 " clip-rule="nonzero"/></clipPath><clipPath id="9ab3bf09ec"><path d="M 5 33 L 11 33 L 11 34.863281 L 5 34.863281 Z M 5 33 " clip-rule="nonzero"/></clipPath><clipPath id="f437b37ac6"><path d="M 13 33 L 18 33 L 18 34.863281 L 13 34.863281 Z M 13 33 " clip-rule="nonzero"/></clipPath><clipPath id="9420e479eb"><path d="M 8 12.085938 L 15 12.085938 L 15 15 L 8 15 Z M 8 12.085938 " clip-rule="nonzero"/></clipPath><clipPath id="01554e875f"><path d="M 12 15 L 20.535156 15 L 20.535156 20 L 12 20 Z M 12 15 " clip-rule="nonzero"/></clipPath><clipPath id="69deaf0f0a"><path d="M 2.902344 12.085938 L 20.535156 12.085938 L 20.535156 34.863281 L 2.902344 34.863281 Z M 2.902344 12.085938 " clip-rule="nonzero"/></clipPath></defs><path fill="#58b947" d="M 17.171875 19.242188 C 17.148438 19.273438 17.121094 19.304688 17.09375 19.332031 C 16.878906 19.570312 16.535156 19.839844 16.007812 20 C 15.785156 20.324219 14.703125 21.839844 13.769531 22.066406 C 13.558594 22.117188 13.359375 22.082031 13.175781 21.960938 C 12.859375 21.761719 12.570312 21.316406 12.324219 20.644531 C 12.21875 20.351562 12.140625 20.078125 12.101562 19.90625 C 11.847656 19.945312 11.59375 19.945312 11.335938 19.90625 C 11.292969 20.078125 11.21875 20.347656 11.113281 20.644531 C 10.867188 21.316406 10.578125 21.757812 10.261719 21.960938 C 10.078125 22.085938 9.878906 22.121094 9.667969 22.066406 C 8.734375 21.839844 7.652344 20.328125 7.429688 20 C 7.238281 19.941406 7.058594 19.863281 6.886719 19.765625 C 6.679688 19.648438 6.5 19.503906 6.34375 19.332031 C 6.316406 19.300781 6.289062 19.269531 6.265625 19.242188 C 6.203125 19.261719 6.136719 19.277344 6.066406 19.292969 C 6.484375 19.804688 6.863281 20.34375 7.195312 20.914062 C 7.839844 22 8.636719 23.71875 8.78125 25.714844 C 8.808594 26.136719 8.878906 26.550781 8.996094 26.957031 C 9.144531 27.457031 9.363281 27.871094 9.652344 28.210938 C 10.191406 28.84375 10.875 29.160156 11.707031 29.15625 L 11.730469 29.15625 C 12.222656 29.15625 12.675781 29.035156 13.101562 28.785156 C 13.363281 28.632812 13.589844 28.441406 13.789062 28.210938 C 14.210938 27.714844 14.484375 27.039062 14.609375 26.191406 C 14.628906 26.039062 14.648438 25.882812 14.660156 25.71875 C 14.804688 23.71875 15.601562 22.003906 16.242188 20.914062 C 16.578125 20.34375 16.957031 19.804688 17.375 19.292969 C 17.300781 19.277344 17.234375 19.261719 17.171875 19.242188 Z M 13.160156 26.761719 C 13.089844 27.191406 12.8125 27.503906 12.351562 27.65625 C 12.15625 27.71875 11.953125 27.75 11.746094 27.753906 L 11.699219 27.753906 C 11.492188 27.75 11.289062 27.71875 11.089844 27.65625 C 10.632812 27.503906 10.351562 27.195312 10.285156 26.761719 C 10.261719 26.625 10.316406 26.546875 10.449219 26.527344 C 10.585938 26.503906 10.660156 26.5625 10.679688 26.695312 C 10.785156 27.378906 11.703125 27.351562 11.710938 27.351562 L 11.726562 27.351562 C 11.765625 27.351562 12.65625 27.375 12.761719 26.695312 C 12.78125 26.5625 12.859375 26.503906 12.992188 26.523438 C 13.128906 26.546875 13.183594 26.625 13.15625 26.757812 Z M 13.160156 26.761719 " fill-opacity="1" fill-rule="nonzero"/><path fill="#062925" d="M 13.503906 24.613281 C 13.503906 24.835938 13.445312 25.03125 13.335938 25.1875 C 13.222656 25.347656 13.085938 25.429688 12.929688 25.429688 C 12.769531 25.429688 12.632812 25.347656 12.523438 25.1875 C 12.410156 25.03125 12.355469 24.835938 12.355469 24.613281 C 12.355469 24.386719 12.410156 24.195312 12.523438 24.035156 C 12.632812 23.875 12.769531 23.796875 12.929688 23.796875 C 13.085938 23.796875 13.222656 23.875 13.335938 24.035156 C 13.445312 24.195312 13.503906 24.386719 13.503906 24.613281 Z M 13.503906 24.613281 " fill-opacity="1" fill-rule="nonzero"/><path fill="#f1f2f2" d="M 13.234375 24.335938 C 13.234375 24.519531 13.179688 24.609375 13.074219 24.609375 C 12.964844 24.609375 12.914062 24.519531 12.914062 24.335938 C 12.914062 24.152344 12.964844 24.0625 13.074219 24.0625 C 13.179688 24.0625 13.234375 24.152344 13.234375 24.335938 Z M 13.234375 24.335938 " fill-opacity="1" fill-rule="nonzero"/><path fill="#062925" d="M 11.082031 24.613281 C 11.082031 24.835938 11.027344 25.03125 10.914062 25.1875 C 10.804688 25.347656 10.667969 25.429688 10.507812 25.429688 C 10.351562 25.429688 10.214844 25.347656 10.101562 25.1875 C 9.992188 25.03125 9.933594 24.835938 9.933594 24.613281 C 9.933594 24.386719 9.992188 24.195312 10.101562 24.035156 C 10.214844 23.875 10.351562 23.796875 10.507812 23.796875 C 10.667969 23.796875 10.804688 23.875 10.914062 24.035156 C 11.027344 24.195312 11.082031 24.386719 11.082031 24.613281 Z M 11.082031 24.613281 " fill-opacity="1" fill-rule="nonzero"/><path fill="#f1f2f2" d="M 10.8125 24.335938 C 10.8125 24.519531 10.757812 24.609375 10.652344 24.609375 C 10.546875 24.609375 10.492188 24.519531 10.492188 24.335938 C 10.492188 24.152344 10.546875 24.0625 10.652344 24.0625 C 10.757812 24.0625 10.8125 24.152344 10.8125 24.335938 Z M 10.8125 24.335938 " fill-opacity="1" fill-rule="nonzero"/><g clip-path="url(#2e0f94df16)"><path fill="#ef4136" d="M 17.894531 34.15625 C 17.707031 34.417969 17.171875 34.519531 16.421875 34.433594 C 14.960938 34.269531 13.625 33.652344 13.261719 33.289062 C 13.070312 33.101562 13.027344 32.664062 13.175781 32.445312 L 13.183594 32.429688 C 13.230469 32.585938 13.257812 32.683594 13.265625 32.699219 C 13.292969 32.789062 13.355469 32.835938 13.453125 32.835938 C 13.476562 32.835938 13.496094 32.832031 13.515625 32.828125 C 13.640625 32.785156 13.683594 32.703125 13.644531 32.574219 C 13.644531 32.574219 13.625 32.515625 13.59375 32.414062 C 13.699219 32.472656 13.898438 32.582031 14.148438 32.695312 C 14.074219 32.761719 14.003906 32.835938 13.945312 32.921875 C 13.878906 33.035156 13.898438 33.125 14.011719 33.195312 C 14.042969 33.214844 14.078125 33.226562 14.117188 33.226562 C 14.191406 33.226562 14.25 33.191406 14.285156 33.128906 C 14.367188 33.03125 14.460938 32.945312 14.558594 32.867188 C 14.628906 32.890625 14.695312 32.917969 14.769531 32.941406 C 14.695312 33.007812 14.628906 33.082031 14.570312 33.160156 C 14.5 33.273438 14.523438 33.367188 14.636719 33.4375 C 14.667969 33.457031 14.703125 33.464844 14.738281 33.464844 C 14.816406 33.464844 14.871094 33.433594 14.910156 33.371094 C 14.941406 33.320312 15.09375 33.179688 15.230469 33.066406 C 15.394531 33.101562 15.558594 33.121094 15.726562 33.121094 C 15.765625 33.121094 15.804688 33.121094 15.84375 33.117188 C 16.074219 33.097656 16.304688 33.058594 16.53125 33.003906 C 17.210938 32.859375 17.546875 32.8125 17.828125 33.390625 C 17.941406 33.621094 18.042969 33.941406 17.894531 34.15625 Z M 17.894531 34.15625 " fill-opacity="1" fill-rule="nonzero"/></g><g clip-path="url(#372299a91a)"><path fill="#ef4136" d="M 10.3125 33.050781 C 10.285156 33.144531 10.242188 33.222656 10.175781 33.289062 C 9.8125 33.652344 8.480469 34.269531 7.015625 34.433594 C 6.265625 34.519531 5.730469 34.417969 5.546875 34.160156 C 5.507812 34.105469 5.484375 34.046875 5.476562 33.984375 C 5.445312 33.792969 5.523438 33.566406 5.609375 33.390625 C 5.785156 33.027344 5.984375 32.910156 6.277344 32.910156 C 6.453125 32.910156 6.65625 32.953125 6.90625 33.007812 C 7.132812 33.058594 7.363281 33.097656 7.59375 33.117188 C 7.800781 33.128906 8.003906 33.113281 8.207031 33.066406 C 8.34375 33.179688 8.496094 33.320312 8.527344 33.371094 C 8.566406 33.433594 8.621094 33.464844 8.695312 33.464844 C 8.734375 33.464844 8.769531 33.457031 8.800781 33.4375 C 8.914062 33.367188 8.9375 33.273438 8.867188 33.164062 C 8.808594 33.082031 8.742188 33.007812 8.667969 32.941406 C 8.738281 32.917969 8.808594 32.894531 8.878906 32.867188 C 8.976562 32.945312 9.066406 33.03125 9.148438 33.128906 C 9.1875 33.191406 9.246094 33.226562 9.320312 33.226562 C 9.359375 33.226562 9.390625 33.214844 9.425781 33.195312 C 9.539062 33.125 9.558594 33.035156 9.488281 32.921875 C 9.429688 32.839844 9.363281 32.761719 9.289062 32.695312 C 9.539062 32.582031 9.738281 32.472656 9.839844 32.414062 C 9.8125 32.515625 9.792969 32.574219 9.792969 32.574219 C 9.753906 32.703125 9.796875 32.785156 9.921875 32.828125 C 9.941406 32.832031 9.960938 32.835938 9.984375 32.835938 C 10.078125 32.835938 10.144531 32.789062 10.171875 32.699219 C 10.175781 32.683594 10.207031 32.589844 10.253906 32.429688 L 10.261719 32.445312 C 10.367188 32.597656 10.378906 32.847656 10.3125 33.050781 Z M 10.3125 33.050781 " fill-opacity="1" fill-rule="nonzero"/></g><path fill="#ccf6c8" d="M 11.71875 28.835938 C 10.964844 28.839844 10.277344 28.628906 9.652344 28.210938 C 10.191406 28.84375 10.875 29.160156 11.707031 29.15625 L 11.730469 29.15625 C 12.222656 29.15625 12.675781 29.035156 13.101562 28.785156 C 13.363281 28.632812 13.589844 28.441406 13.789062 28.210938 C 13.164062 28.628906 12.472656 28.839844 11.71875 28.835938 Z M 11.71875 28.835938 " fill-opacity="1" fill-rule="nonzero"/><g clip-path="url(#9b6fc7b2f3)"><path fill="#00ab50" d="M 20.03125 16.984375 C 19.949219 16.195312 19.589844 15.65625 18.957031 15.375 L 18.914062 15.359375 C 18.769531 15.300781 18.621094 15.257812 18.472656 15.226562 C 18.378906 15.210938 18.285156 15.199219 18.191406 15.191406 L 18.183594 15.191406 C 18.191406 15.210938 18.199219 15.230469 18.207031 15.25 C 18.25 15.378906 18.207031 15.464844 18.078125 15.503906 C 18.058594 15.511719 18.035156 15.515625 18.015625 15.515625 C 17.929688 15.515625 17.871094 15.476562 17.832031 15.398438 C 17.832031 15.394531 17.828125 15.386719 17.828125 15.382812 C 17.097656 14.136719 15.695312 14.074219 15.253906 14.085938 C 15.28125 14.5 15.242188 14.910156 15.140625 15.3125 C 15.140625 15.019531 15.09375 14.738281 14.996094 14.464844 C 14.972656 14.492188 14.941406 14.507812 14.90625 14.515625 C 14.890625 14.519531 14.875 14.523438 14.855469 14.523438 C 14.753906 14.523438 14.6875 14.46875 14.664062 14.371094 C 14.632812 14.246094 14.585938 14.125 14.53125 14.011719 C 13.855469 12.667969 11.746094 12.683594 11.722656 12.683594 L 11.714844 12.683594 C 11.261719 12.691406 10.820312 12.761719 10.386719 12.890625 C 9.785156 13.078125 9.34375 13.367188 9.0625 13.753906 C 9.058594 13.761719 9.054688 13.765625 9.050781 13.773438 C 8.972656 13.886719 8.90625 14.003906 8.851562 14.132812 C 8.820312 14.210938 8.796875 14.289062 8.773438 14.371094 C 8.746094 14.46875 8.683594 14.519531 8.582031 14.519531 C 8.5625 14.519531 8.546875 14.515625 8.53125 14.511719 C 8.402344 14.480469 8.355469 14.398438 8.386719 14.269531 C 8.429688 14.105469 8.492188 13.945312 8.570312 13.796875 C 8.203125 13.75 7.832031 13.757812 7.464844 13.820312 C 6.523438 13.980469 5.902344 14.503906 5.613281 15.378906 C 5.582031 15.46875 5.519531 15.515625 5.421875 15.515625 C 5.402344 15.515625 5.378906 15.511719 5.359375 15.503906 C 5.234375 15.464844 5.191406 15.378906 5.234375 15.253906 C 5.238281 15.234375 5.246094 15.210938 5.253906 15.191406 C 5.003906 15.210938 4.757812 15.265625 4.523438 15.359375 C 3.863281 15.632812 3.488281 16.179688 3.40625 16.984375 C 3.339844 17.65625 3.535156 18.171875 3.988281 18.515625 C 4.585938 18.96875 5.480469 19.019531 6.035156 18.886719 C 5.96875 18.761719 5.917969 18.628906 5.882812 18.488281 C 5.863281 18.363281 5.914062 18.285156 6.039062 18.261719 C 6.164062 18.234375 6.242188 18.285156 6.273438 18.410156 C 6.34375 18.664062 6.472656 18.886719 6.652344 19.078125 C 6.914062 19.351562 7.226562 19.535156 7.589844 19.628906 C 7.601562 19.632812 7.613281 19.636719 7.625 19.640625 C 7.90625 19.710938 8.191406 19.746094 8.484375 19.742188 C 9.226562 19.742188 9.769531 19.578125 10.050781 19.265625 C 10.199219 19.109375 10.273438 18.925781 10.277344 18.710938 C 10.261719 18.578125 10.324219 18.503906 10.457031 18.492188 C 10.589844 18.480469 10.660156 18.542969 10.671875 18.675781 C 10.679688 18.871094 10.640625 19.058594 10.550781 19.234375 C 10.785156 19.351562 11.234375 19.535156 11.714844 19.535156 C 12.179688 19.535156 12.613281 19.363281 12.855469 19.246094 L 12.878906 19.234375 C 12.792969 19.058594 12.75 18.871094 12.757812 18.675781 L 13.15625 18.710938 C 13.15625 18.929688 13.234375 19.117188 13.386719 19.273438 C 13.675781 19.582031 14.214844 19.742188 14.953125 19.742188 C 16.871094 19.742188 17.160156 18.425781 17.160156 18.410156 C 17.183594 18.277344 17.265625 18.226562 17.398438 18.25 C 17.53125 18.277344 17.582031 18.355469 17.550781 18.488281 C 17.519531 18.628906 17.46875 18.761719 17.398438 18.890625 C 17.953125 19.019531 18.851562 18.96875 19.445312 18.519531 C 19.902344 18.171875 20.097656 17.65625 20.03125 16.984375 Z M 4.503906 18.160156 C 4.375 18.199219 4.289062 18.15625 4.246094 18.027344 L 4.199219 17.878906 C 4.1875 17.828125 4.171875 17.78125 4.160156 17.730469 C 4.136719 17.628906 4.121094 17.527344 4.113281 17.425781 C 4.105469 17.320312 4.109375 17.21875 4.121094 17.117188 C 4.125 17.089844 4.128906 17.066406 4.136719 17.039062 C 4.140625 17.015625 4.148438 16.992188 4.15625 16.96875 C 4.167969 16.917969 4.191406 16.871094 4.214844 16.828125 C 4.21875 16.824219 4.226562 16.820312 4.230469 16.824219 C 4.238281 16.828125 4.238281 16.832031 4.238281 16.839844 C 4.226562 16.882812 4.222656 16.929688 4.226562 16.976562 C 4.226562 17 4.230469 17.023438 4.230469 17.046875 C 4.230469 17.070312 4.234375 17.09375 4.242188 17.113281 C 4.257812 17.203125 4.285156 17.292969 4.320312 17.375 C 4.359375 17.457031 4.398438 17.539062 4.445312 17.617188 L 4.515625 17.730469 L 4.597656 17.839844 L 4.601562 17.84375 C 4.613281 17.863281 4.625 17.882812 4.632812 17.902344 C 4.671875 18.03125 4.628906 18.117188 4.503906 18.160156 Z M 9.453125 15.539062 C 9.324219 15.582031 9.238281 15.535156 9.195312 15.410156 L 9.152344 15.261719 C 9.136719 15.210938 9.125 15.160156 9.109375 15.109375 C 9.089844 15.011719 9.074219 14.90625 9.066406 14.804688 C 9.054688 14.703125 9.058594 14.601562 9.070312 14.496094 C 9.074219 14.472656 9.082031 14.445312 9.085938 14.421875 C 9.089844 14.398438 9.097656 14.371094 9.105469 14.347656 C 9.121094 14.300781 9.140625 14.253906 9.167969 14.210938 C 9.167969 14.207031 9.175781 14.203125 9.179688 14.203125 C 9.1875 14.207031 9.191406 14.210938 9.1875 14.21875 C 9.175781 14.265625 9.171875 14.3125 9.175781 14.359375 C 9.175781 14.378906 9.179688 14.402344 9.179688 14.425781 C 9.179688 14.449219 9.1875 14.472656 9.191406 14.496094 C 9.207031 14.585938 9.230469 14.671875 9.269531 14.757812 C 9.304688 14.839844 9.34375 14.921875 9.394531 14.996094 L 9.46875 15.113281 L 9.550781 15.222656 L 9.554688 15.226562 C 9.566406 15.246094 9.574219 15.261719 9.582031 15.285156 C 9.625 15.414062 9.582031 15.496094 9.453125 15.539062 Z M 14.378906 14.804688 C 14.371094 14.90625 14.355469 15.011719 14.332031 15.109375 C 14.320312 15.160156 14.304688 15.210938 14.292969 15.261719 L 14.246094 15.410156 C 14.203125 15.535156 14.117188 15.582031 13.992188 15.539062 C 13.863281 15.496094 13.816406 15.414062 13.859375 15.285156 C 13.867188 15.261719 13.875 15.246094 13.890625 15.226562 L 13.894531 15.222656 L 13.972656 15.113281 L 14.046875 14.996094 C 14.09375 14.921875 14.136719 14.839844 14.171875 14.757812 C 14.207031 14.671875 14.234375 14.585938 14.253906 14.496094 C 14.257812 14.476562 14.261719 14.449219 14.261719 14.429688 C 14.265625 14.40625 14.269531 14.382812 14.269531 14.359375 C 14.269531 14.3125 14.265625 14.265625 14.253906 14.222656 C 14.253906 14.214844 14.257812 14.210938 14.261719 14.207031 C 14.269531 14.207031 14.273438 14.207031 14.277344 14.210938 C 14.304688 14.253906 14.324219 14.300781 14.339844 14.351562 C 14.347656 14.375 14.351562 14.398438 14.359375 14.425781 C 14.363281 14.449219 14.367188 14.472656 14.371094 14.5 C 14.382812 14.601562 14.386719 14.703125 14.378906 14.804688 Z M 19.328125 17.425781 C 19.316406 17.527344 19.304688 17.628906 19.28125 17.730469 C 19.269531 17.78125 19.253906 17.828125 19.242188 17.878906 L 19.195312 18.027344 C 19.160156 18.140625 19.082031 18.1875 18.964844 18.164062 C 18.847656 18.144531 18.792969 18.074219 18.800781 17.953125 C 18.800781 17.9375 18.804688 17.917969 18.808594 17.902344 C 18.816406 17.882812 18.824219 17.863281 18.835938 17.84375 L 18.84375 17.839844 L 18.921875 17.730469 L 18.996094 17.617188 C 19.046875 17.539062 19.085938 17.460938 19.121094 17.375 C 19.160156 17.292969 19.1875 17.203125 19.203125 17.113281 C 19.207031 17.09375 19.210938 17.070312 19.214844 17.046875 C 19.21875 17.023438 19.21875 17 19.21875 16.976562 C 19.222656 16.929688 19.21875 16.882812 19.207031 16.839844 C 19.203125 16.832031 19.207031 16.824219 19.214844 16.824219 L 19.21875 16.824219 C 19.222656 16.824219 19.226562 16.828125 19.226562 16.828125 C 19.253906 16.875 19.277344 16.917969 19.289062 16.96875 C 19.296875 16.992188 19.300781 17.015625 19.308594 17.042969 C 19.316406 17.066406 19.320312 17.089844 19.324219 17.117188 C 19.335938 17.21875 19.335938 17.320312 19.328125 17.425781 Z M 19.328125 17.425781 " fill-opacity="1" fill-rule="nonzero"/></g><path fill="#ccf6c8" d="M 8.996094 26.957031 C 8.878906 26.550781 8.808594 26.136719 8.78125 25.714844 C 8.636719 23.71875 7.839844 22 7.195312 20.914062 C 6.863281 20.34375 6.484375 19.804688 6.066406 19.292969 C 6.136719 19.277344 6.203125 19.261719 6.265625 19.242188 C 6.289062 19.269531 6.316406 19.300781 6.34375 19.332031 C 6.5 19.503906 6.679688 19.648438 6.886719 19.765625 C 7.238281 20.292969 8.1875 21.789062 8.542969 23.128906 C 8.851562 24.292969 8.960938 26.023438 8.996094 26.957031 Z M 8.996094 26.957031 " fill-opacity="1" fill-rule="nonzero"/><path fill="#ccf6c8" d="M 14.441406 26.957031 C 14.558594 26.550781 14.628906 26.136719 14.65625 25.714844 C 14.800781 23.71875 15.597656 22 16.242188 20.914062 C 16.578125 20.34375 16.953125 19.804688 17.371094 19.292969 C 17.300781 19.277344 17.234375 19.261719 17.171875 19.242188 C 17.148438 19.269531 17.121094 19.300781 17.09375 19.332031 C 16.9375 19.503906 16.757812 19.648438 16.550781 19.765625 C 16.199219 20.292969 15.25 21.789062 14.894531 23.128906 C 14.585938 24.292969 14.480469 26.023438 14.441406 26.957031 Z M 14.441406 26.957031 " fill-opacity="1" fill-rule="nonzero"/><path fill="#ef78b4" d="M 14.09375 26.070312 C 14.09375 26.125 14.0625 26.167969 14.003906 26.207031 C 13.941406 26.246094 13.871094 26.265625 13.785156 26.265625 C 13.703125 26.265625 13.628906 26.246094 13.570312 26.207031 C 13.511719 26.167969 13.480469 26.125 13.480469 26.070312 C 13.480469 26.015625 13.511719 25.96875 13.570312 25.929688 C 13.628906 25.890625 13.703125 25.875 13.785156 25.875 C 13.871094 25.875 13.941406 25.890625 14.003906 25.929688 C 14.0625 25.96875 14.09375 26.015625 14.09375 26.070312 Z M 14.09375 26.070312 " fill-opacity="1" fill-rule="nonzero"/><path fill="#ef78b4" d="M 9.957031 26.070312 C 9.957031 26.125 9.929688 26.167969 9.867188 26.207031 C 9.808594 26.246094 9.734375 26.265625 9.652344 26.265625 C 9.566406 26.265625 9.496094 26.246094 9.433594 26.207031 C 9.375 26.167969 9.34375 26.125 9.34375 26.070312 C 9.34375 26.015625 9.375 25.96875 9.433594 25.929688 C 9.496094 25.890625 9.566406 25.875 9.652344 25.875 C 9.734375 25.875 9.808594 25.890625 9.867188 25.929688 C 9.929688 25.96875 9.957031 26.015625 9.957031 26.070312 Z M 9.957031 26.070312 " fill-opacity="1" fill-rule="nonzero"/><g clip-path="url(#9ab3bf09ec)"><path fill="#e6e7e8" d="M 10.3125 33.050781 C 10.285156 33.144531 10.242188 33.222656 10.175781 33.289062 C 9.8125 33.652344 8.480469 34.269531 7.015625 34.433594 C 6.265625 34.519531 5.730469 34.417969 5.546875 34.160156 C 5.507812 34.105469 5.484375 34.046875 5.476562 33.984375 C 6.222656 34.035156 8.539062 34.078125 10.3125 33.050781 Z M 10.3125 33.050781 " fill-opacity="1" fill-rule="nonzero"/></g><g clip-path="url(#f437b37ac6)"><path fill="#e6e7e8" d="M 13.132812 33.050781 C 13.160156 33.144531 13.203125 33.222656 13.269531 33.289062 C 13.632812 33.652344 14.964844 34.269531 16.429688 34.433594 C 17.179688 34.519531 17.714844 34.417969 17.898438 34.160156 C 17.9375 34.105469 17.960938 34.046875 17.96875 33.984375 C 17.222656 34.035156 14.90625 34.078125 13.132812 33.050781 Z M 13.132812 33.050781 " fill-opacity="1" fill-rule="nonzero"/></g><path fill="#ccf6c8" d="M 17.828125 15.378906 C 17.097656 14.132812 15.695312 14.070312 15.253906 14.082031 C 15.28125 14.496094 15.242188 14.90625 15.140625 15.308594 C 15.140625 15.015625 15.089844 14.734375 14.996094 14.460938 C 15.050781 14.40625 15.066406 14.34375 15.050781 14.269531 C 15.007812 14.105469 14.945312 13.949219 14.867188 13.796875 C 14.921875 13.789062 14.984375 13.785156 15.050781 13.777344 C 15.105469 13.777344 15.160156 13.773438 15.21875 13.769531 C 15.472656 13.761719 15.722656 13.777344 15.972656 13.820312 C 16.914062 13.980469 17.535156 14.503906 17.828125 15.378906 Z M 17.828125 15.378906 " fill-opacity="1" fill-rule="nonzero"/><path fill="#00693d" d="M 18.214844 15.296875 C 18.214844 15.28125 18.210938 15.265625 18.207031 15.253906 C 18.210938 15.265625 18.214844 15.28125 18.214844 15.296875 Z M 18.214844 15.296875 " fill-opacity="1" fill-rule="nonzero"/><path fill="#ccf6c8" d="M 5.613281 15.375 C 6.34375 14.132812 7.746094 14.070312 8.183594 14.082031 C 8.160156 14.496094 8.195312 14.902344 8.300781 15.304688 C 8.300781 15.015625 8.347656 14.734375 8.445312 14.457031 C 8.390625 14.40625 8.371094 14.339844 8.390625 14.265625 C 8.433594 14.101562 8.496094 13.945312 8.574219 13.792969 C 8.519531 13.789062 8.457031 13.78125 8.386719 13.777344 C 8.335938 13.773438 8.277344 13.769531 8.21875 13.769531 C 7.96875 13.757812 7.714844 13.773438 7.464844 13.8125 C 6.527344 13.976562 5.902344 14.503906 5.613281 15.375 Z M 5.613281 15.375 " fill-opacity="1" fill-rule="nonzero"/><g clip-path="url(#9420e479eb)"><path fill="#ccf6c8" d="M 14.527344 14.011719 C 12.09375 12.085938 9.324219 13.542969 8.851562 14.132812 C 8.90625 14.003906 8.96875 13.886719 9.050781 13.773438 C 9.054688 13.765625 9.058594 13.761719 9.0625 13.753906 C 9.34375 13.367188 9.785156 13.078125 10.382812 12.890625 C 10.816406 12.761719 11.261719 12.691406 11.714844 12.683594 L 11.71875 12.683594 C 11.746094 12.683594 13.855469 12.667969 14.527344 14.011719 Z M 14.527344 14.011719 " fill-opacity="1" fill-rule="nonzero"/></g><g clip-path="url(#01554e875f)"><path fill="#00693d" d="M 19.449219 18.519531 C 18.855469 18.96875 17.957031 19.019531 17.402344 18.890625 C 17.472656 18.761719 17.523438 18.628906 17.554688 18.488281 C 17.585938 18.355469 17.53125 18.277344 17.398438 18.25 C 17.265625 18.226562 17.1875 18.277344 17.164062 18.410156 C 17.160156 18.425781 16.875 19.742188 14.953125 19.742188 C 14.21875 19.742188 13.675781 19.582031 13.390625 19.273438 C 13.234375 19.117188 13.160156 18.929688 13.160156 18.710938 L 12.761719 18.675781 C 12.753906 18.871094 12.792969 19.058594 12.882812 19.234375 L 12.859375 19.246094 C 12.101562 18.226562 12.914062 16.6875 13.566406 17.839844 C 14.117188 18.804688 15.21875 18.929688 16.023438 18.519531 C 16.464844 18.230469 16.378906 17.625 16.007812 16.957031 C 16.542969 17.757812 17.59375 18.054688 17.636719 18.0625 C 17.960938 18.121094 18.445312 18.15625 18.792969 17.953125 C 19.019531 17.820312 19.183594 17.589844 19.21875 17.203125 C 19.226562 17.074219 19.226562 16.949219 19.21875 16.820312 C 19.203125 16.6875 19.175781 16.558594 19.136719 16.433594 C 18.988281 16.050781 18.753906 15.738281 18.429688 15.484375 C 18.449219 15.761719 18.433594 16.390625 17.929688 16.503906 C 18.148438 16.257812 17.882812 15.53125 17.832031 15.398438 C 17.867188 15.476562 17.929688 15.515625 18.015625 15.515625 C 18.035156 15.515625 18.058594 15.511719 18.078125 15.503906 C 18.160156 15.480469 18.207031 15.421875 18.214844 15.335938 C 18.214844 15.332031 18.214844 15.328125 18.214844 15.324219 C 18.214844 15.316406 18.214844 15.304688 18.214844 15.296875 C 18.214844 15.28125 18.210938 15.265625 18.207031 15.253906 C 18.199219 15.230469 18.191406 15.210938 18.183594 15.191406 L 18.191406 15.191406 C 18.222656 15.191406 18.253906 15.195312 18.289062 15.199219 L 18.3125 15.203125 L 18.34375 15.207031 L 18.386719 15.214844 L 18.425781 15.222656 L 18.433594 15.222656 L 18.472656 15.226562 L 18.519531 15.238281 C 18.652344 15.265625 18.785156 15.304688 18.910156 15.359375 L 18.957031 15.378906 C 19.589844 15.652344 19.949219 16.195312 20.03125 16.984375 C 20.097656 17.65625 19.902344 18.171875 19.449219 18.519531 Z M 19.449219 18.519531 " fill-opacity="1" fill-rule="nonzero"/></g><path fill="#00693d" d="M 3.988281 18.519531 C 4.585938 18.96875 5.480469 19.019531 6.035156 18.890625 C 5.96875 18.761719 5.917969 18.628906 5.882812 18.488281 C 5.855469 18.355469 5.90625 18.277344 6.039062 18.25 C 6.171875 18.226562 6.25 18.277344 6.273438 18.410156 C 6.273438 18.425781 6.5625 19.742188 8.484375 19.742188 C 9.222656 19.742188 9.761719 19.582031 10.046875 19.273438 C 10.203125 19.117188 10.277344 18.929688 10.277344 18.710938 L 10.675781 18.675781 C 10.683594 18.871094 10.644531 19.058594 10.554688 19.234375 L 10.582031 19.246094 C 11.335938 18.226562 10.523438 16.6875 9.871094 17.839844 C 9.320312 18.804688 8.21875 18.929688 7.414062 18.519531 C 6.972656 18.230469 7.058594 17.625 7.429688 16.957031 C 6.894531 17.757812 5.84375 18.054688 5.800781 18.0625 C 5.476562 18.121094 4.992188 18.15625 4.644531 17.953125 C 4.421875 17.820312 4.253906 17.589844 4.222656 17.203125 C 4.210938 17.074219 4.210938 16.949219 4.222656 16.820312 C 4.234375 16.6875 4.257812 16.558594 4.296875 16.433594 C 4.449219 16.050781 4.683594 15.738281 5.007812 15.484375 C 4.988281 15.761719 5.003906 16.390625 5.507812 16.503906 C 5.289062 16.257812 5.554688 15.53125 5.601562 15.398438 C 5.566406 15.476562 5.507812 15.515625 5.421875 15.515625 C 5.402344 15.515625 5.378906 15.511719 5.359375 15.503906 C 5.277344 15.480469 5.230469 15.421875 5.222656 15.335938 C 5.222656 15.332031 5.222656 15.328125 5.222656 15.324219 C 5.21875 15.316406 5.21875 15.304688 5.222656 15.296875 C 5.222656 15.28125 5.226562 15.265625 5.230469 15.253906 C 5.238281 15.234375 5.242188 15.210938 5.25 15.191406 L 5.246094 15.191406 C 5.214844 15.191406 5.183594 15.195312 5.148438 15.199219 L 5.125 15.203125 L 5.09375 15.207031 L 5.050781 15.214844 L 5.011719 15.222656 L 5.003906 15.222656 L 4.964844 15.230469 L 4.917969 15.238281 C 4.785156 15.265625 4.652344 15.308594 4.523438 15.359375 L 4.476562 15.378906 C 3.847656 15.65625 3.488281 16.195312 3.40625 16.984375 C 3.339844 17.65625 3.535156 18.171875 3.988281 18.519531 Z M 3.988281 18.519531 " fill-opacity="1" fill-rule="nonzero"/><path fill="#00693d" d="M 18.472656 15.230469 L 18.433594 15.222656 Z M 18.472656 15.230469 " fill-opacity="1" fill-rule="nonzero"/><path fill="#062925" d="M 12.992188 26.53125 C 12.859375 26.507812 12.78125 26.5625 12.761719 26.695312 C 12.652344 27.375 11.765625 27.351562 11.726562 27.351562 L 11.710938 27.351562 C 11.703125 27.351562 10.785156 27.378906 10.675781 26.695312 C 10.652344 26.570312 10.578125 26.515625 10.449219 26.535156 C 10.320312 26.554688 10.265625 26.628906 10.28125 26.757812 C 10.351562 27.191406 10.628906 27.5 11.089844 27.652344 C 11.285156 27.71875 11.488281 27.75 11.695312 27.75 L 11.742188 27.75 C 11.949219 27.75 12.152344 27.71875 12.351562 27.652344 C 12.808594 27.5 13.085938 27.191406 13.15625 26.757812 C 13.175781 26.628906 13.121094 26.550781 12.992188 26.53125 Z M 12.992188 26.53125 " fill-opacity="1" fill-rule="nonzero"/><path fill="#062925" d="M 4.601562 17.84375 L 4.597656 17.839844 L 4.515625 17.730469 L 4.441406 17.617188 C 4.394531 17.539062 4.351562 17.460938 4.316406 17.375 C 4.28125 17.292969 4.253906 17.203125 4.234375 17.113281 C 4.230469 17.09375 4.226562 17.070312 4.226562 17.046875 C 4.222656 17.023438 4.21875 17 4.21875 16.976562 C 4.21875 16.929688 4.222656 16.882812 4.234375 16.839844 C 4.234375 16.832031 4.230469 16.828125 4.222656 16.824219 C 4.21875 16.824219 4.214844 16.824219 4.210938 16.828125 C 4.183594 16.875 4.164062 16.917969 4.148438 16.96875 C 4.140625 16.992188 4.136719 17.015625 4.128906 17.042969 C 4.125 17.066406 4.121094 17.089844 4.117188 17.117188 C 4.101562 17.21875 4.101562 17.320312 4.109375 17.425781 C 4.117188 17.527344 4.132812 17.628906 4.15625 17.730469 C 4.167969 17.78125 4.179688 17.832031 4.195312 17.882812 L 4.242188 18.027344 C 4.28125 18.164062 4.367188 18.207031 4.5 18.164062 C 4.632812 18.121094 4.675781 18.035156 4.628906 17.902344 C 4.621094 17.882812 4.613281 17.863281 4.601562 17.84375 Z M 4.601562 17.84375 " fill-opacity="1" fill-rule="nonzero"/><path fill="#062925" d="M 9.550781 15.226562 L 9.546875 15.222656 L 9.46875 15.113281 L 9.390625 14.996094 C 9.34375 14.921875 9.304688 14.839844 9.269531 14.757812 C 9.230469 14.671875 9.203125 14.585938 9.183594 14.496094 C 9.179688 14.472656 9.179688 14.449219 9.175781 14.429688 C 9.171875 14.40625 9.171875 14.382812 9.171875 14.359375 C 9.167969 14.3125 9.171875 14.265625 9.183594 14.222656 C 9.183594 14.214844 9.183594 14.210938 9.175781 14.207031 C 9.167969 14.207031 9.164062 14.207031 9.160156 14.210938 C 9.132812 14.253906 9.113281 14.300781 9.101562 14.351562 C 9.089844 14.375 9.085938 14.398438 9.082031 14.425781 C 9.074219 14.449219 9.070312 14.472656 9.066406 14.5 C 9.054688 14.601562 9.050781 14.703125 9.058594 14.808594 C 9.066406 14.910156 9.082031 15.011719 9.105469 15.113281 C 9.117188 15.164062 9.132812 15.214844 9.144531 15.261719 L 9.191406 15.410156 C 9.234375 15.539062 9.320312 15.582031 9.449219 15.542969 C 9.578125 15.5 9.621094 15.414062 9.578125 15.285156 C 9.574219 15.265625 9.5625 15.246094 9.550781 15.226562 Z M 9.550781 15.226562 " fill-opacity="1" fill-rule="nonzero"/><path fill="#062925" d="M 19.304688 17.039062 C 19.300781 17.015625 19.292969 16.992188 19.285156 16.96875 C 19.273438 16.917969 19.25 16.871094 19.226562 16.828125 C 19.222656 16.824219 19.21875 16.824219 19.210938 16.824219 C 19.203125 16.824219 19.199219 16.832031 19.203125 16.839844 C 19.214844 16.882812 19.21875 16.929688 19.214844 16.976562 C 19.214844 17 19.210938 17.023438 19.210938 17.046875 C 19.210938 17.070312 19.203125 17.089844 19.199219 17.113281 C 19.183594 17.203125 19.15625 17.292969 19.121094 17.375 C 19.082031 17.457031 19.042969 17.539062 18.996094 17.617188 L 18.917969 17.730469 L 18.839844 17.839844 L 18.835938 17.84375 C 18.820312 17.863281 18.8125 17.882812 18.804688 17.902344 C 18.757812 18.035156 18.800781 18.121094 18.933594 18.164062 C 19.066406 18.207031 19.152344 18.160156 19.191406 18.027344 L 19.238281 17.878906 C 19.25 17.828125 19.265625 17.777344 19.277344 17.730469 C 19.300781 17.628906 19.316406 17.527344 19.324219 17.421875 C 19.332031 17.320312 19.328125 17.21875 19.316406 17.113281 C 19.316406 17.089844 19.3125 17.066406 19.304688 17.039062 Z M 19.304688 17.039062 " fill-opacity="1" fill-rule="nonzero"/><path fill="#062925" d="M 14.355469 14.421875 C 14.351562 14.398438 14.347656 14.371094 14.335938 14.347656 C 14.324219 14.300781 14.304688 14.253906 14.277344 14.210938 C 14.273438 14.207031 14.269531 14.203125 14.261719 14.203125 C 14.253906 14.207031 14.253906 14.210938 14.253906 14.21875 C 14.265625 14.265625 14.269531 14.3125 14.265625 14.359375 C 14.265625 14.378906 14.265625 14.402344 14.261719 14.425781 C 14.261719 14.449219 14.257812 14.472656 14.253906 14.496094 C 14.234375 14.585938 14.207031 14.671875 14.171875 14.753906 C 14.136719 14.839844 14.09375 14.917969 14.046875 14.996094 L 13.972656 15.113281 L 13.890625 15.222656 L 13.886719 15.226562 C 13.875 15.242188 13.863281 15.261719 13.859375 15.285156 C 13.816406 15.414062 13.859375 15.496094 13.988281 15.539062 C 14.117188 15.582031 14.203125 15.539062 14.242188 15.410156 L 14.289062 15.261719 C 14.304688 15.210938 14.316406 15.160156 14.328125 15.109375 C 14.351562 15.011719 14.367188 14.90625 14.375 14.804688 C 14.386719 14.703125 14.382812 14.597656 14.367188 14.496094 C 14.367188 14.472656 14.363281 14.445312 14.355469 14.421875 Z M 14.355469 14.421875 " fill-opacity="1" fill-rule="nonzero"/><g clip-path="url(#69deaf0f0a)"><path fill="#062925" d="M 20.429688 16.945312 C 20.308594 15.734375 19.613281 15.210938 19.050781 14.984375 C 18.714844 14.851562 18.367188 14.785156 18.007812 14.785156 C 17.613281 14.042969 16.9375 13.574219 16.027344 13.421875 C 15.5625 13.347656 15.09375 13.351562 14.625 13.429688 C 14.292969 13.015625 13.800781 12.703125 13.164062 12.507812 C 12.691406 12.363281 12.210938 12.289062 11.71875 12.285156 C 11.226562 12.289062 10.746094 12.363281 10.277344 12.507812 C 9.640625 12.703125 9.148438 13.015625 8.8125 13.429688 C 8.347656 13.351562 7.878906 13.347656 7.410156 13.425781 C 6.5 13.574219 5.824219 14.042969 5.433594 14.785156 C 5.070312 14.785156 4.722656 14.851562 4.386719 14.984375 C 3.824219 15.210938 3.132812 15.734375 3.011719 16.945312 C 2.90625 17.964844 3.355469 18.535156 3.746094 18.835938 C 4.207031 19.183594 4.746094 19.300781 5.125 19.335938 C 5.234375 19.347656 5.347656 19.351562 5.457031 19.351562 C 5.503906 19.351562 5.546875 19.351562 5.589844 19.351562 C 6.066406 19.902344 6.488281 20.496094 6.859375 21.125 C 7.476562 22.175781 8.242188 23.828125 8.382812 25.746094 C 8.386719 25.789062 8.390625 25.828125 8.394531 25.871094 C 7.761719 25.5 7.222656 25.03125 6.769531 24.453125 C 6.9375 24.308594 7.046875 24.125 7.09375 23.90625 C 7.140625 23.691406 7.121094 23.480469 7.027344 23.277344 C 6.976562 23.15625 6.886719 23.121094 6.765625 23.175781 C 6.644531 23.230469 6.609375 23.316406 6.664062 23.441406 C 6.78125 23.699219 6.738281 23.929688 6.53125 24.128906 C 6.4375 23.992188 6.34375 23.84375 6.253906 23.683594 C 6.1875 23.566406 6.09375 23.539062 5.976562 23.605469 C 5.859375 23.671875 5.835938 23.765625 5.90625 23.882812 C 5.988281 24.03125 6.078125 24.171875 6.167969 24.304688 C 5.871094 24.335938 5.660156 24.214844 5.539062 23.941406 C 5.488281 23.8125 5.398438 23.777344 5.269531 23.835938 C 5.144531 23.890625 5.113281 23.980469 5.171875 24.105469 C 5.253906 24.289062 5.378906 24.433594 5.550781 24.542969 C 5.71875 24.652344 5.902344 24.707031 6.101562 24.707031 C 6.210938 24.707031 6.316406 24.691406 6.417969 24.65625 C 7.242188 25.722656 8.148438 26.210938 8.453125 26.355469 C 8.558594 26.992188 8.746094 27.542969 9.019531 28.003906 C 9.296875 28.484375 9.675781 28.863281 10.15625 29.144531 C 10.238281 29.191406 10.324219 29.234375 10.40625 29.273438 C 10.351562 30.304688 10.128906 31.324219 9.96875 31.953125 C 9.890625 31.964844 9.816406 31.988281 9.742188 32.019531 C 9.734375 32.023438 9.726562 32.027344 9.71875 32.03125 C 9.4375 32.191406 9.144531 32.332031 8.847656 32.453125 L 8.835938 32.457031 C 8.476562 32.601562 8.0625 32.726562 7.714844 32.726562 C 7.683594 32.726562 7.652344 32.726562 7.621094 32.722656 C 7.410156 32.703125 7.199219 32.667969 6.992188 32.617188 C 6.375 32.484375 5.679688 32.335938 5.25 33.214844 C 4.960938 33.8125 5.074219 34.183594 5.21875 34.386719 C 5.441406 34.703125 5.890625 34.863281 6.53125 34.863281 C 6.707031 34.863281 6.882812 34.851562 7.058594 34.832031 C 8.503906 34.667969 9.984375 34.046875 10.460938 33.574219 C 10.785156 33.246094 10.851562 32.601562 10.59375 32.222656 C 10.539062 32.132812 10.460938 32.0625 10.367188 32.011719 C 10.527344 31.394531 10.734375 30.429688 10.796875 29.417969 C 11.078125 29.507812 11.367188 29.554688 11.660156 29.558594 L 11.777344 29.558594 C 12.070312 29.554688 12.359375 29.507812 12.640625 29.417969 C 12.707031 30.429688 12.914062 31.394531 13.070312 32.011719 C 12.976562 32.0625 12.902344 32.132812 12.84375 32.222656 C 12.585938 32.601562 12.652344 33.246094 12.976562 33.574219 C 13.453125 34.050781 14.933594 34.667969 16.378906 34.832031 C 16.554688 34.851562 16.730469 34.863281 16.90625 34.863281 C 17.546875 34.863281 17.996094 34.703125 18.21875 34.386719 C 18.363281 34.183594 18.476562 33.8125 18.1875 33.214844 C 17.757812 32.332031 17.0625 32.484375 16.445312 32.617188 C 16.238281 32.667969 16.03125 32.699219 15.816406 32.71875 C 15.453125 32.746094 14.996094 32.613281 14.605469 32.457031 L 14.589844 32.449219 C 14.289062 32.328125 14 32.1875 13.722656 32.027344 C 13.714844 32.023438 13.707031 32.019531 13.699219 32.015625 C 13.625 31.984375 13.546875 31.960938 13.46875 31.953125 C 13.304688 31.324219 13.085938 30.304688 13.03125 29.269531 C 13.113281 29.230469 13.199219 29.191406 13.28125 29.140625 C 13.761719 28.859375 14.140625 28.480469 14.417969 28 C 14.691406 27.539062 14.878906 26.992188 14.984375 26.355469 C 15.289062 26.210938 16.195312 25.71875 17.019531 24.648438 C 17.269531 24.734375 17.515625 24.726562 17.757812 24.621094 C 18 24.515625 18.175781 24.34375 18.28125 24.105469 C 18.335938 23.980469 18.304688 23.894531 18.179688 23.839844 C 18.058594 23.785156 17.972656 23.820312 17.917969 23.941406 C 17.863281 24.066406 17.773438 24.160156 17.652344 24.226562 C 17.535156 24.292969 17.40625 24.320312 17.269531 24.300781 C 17.359375 24.167969 17.445312 24.03125 17.53125 23.882812 C 17.601562 23.765625 17.578125 23.671875 17.457031 23.605469 C 17.339844 23.539062 17.25 23.566406 17.183594 23.683594 C 17.097656 23.839844 17.003906 23.984375 16.910156 24.121094 C 16.71875 23.921875 16.675781 23.695312 16.789062 23.441406 C 16.847656 23.316406 16.816406 23.226562 16.691406 23.171875 C 16.566406 23.117188 16.476562 23.152344 16.425781 23.277344 C 16.335938 23.476562 16.3125 23.6875 16.359375 23.902344 C 16.40625 24.117188 16.507812 24.296875 16.671875 24.445312 C 16.222656 25.023438 15.675781 25.5 15.042969 25.871094 C 15.046875 25.832031 15.050781 25.789062 15.054688 25.746094 C 15.191406 23.828125 15.960938 22.175781 16.578125 21.128906 C 16.945312 20.496094 17.371094 19.902344 17.847656 19.351562 C 17.894531 19.351562 17.933594 19.351562 17.980469 19.351562 C 18.089844 19.351562 18.203125 19.347656 18.3125 19.335938 C 18.6875 19.296875 19.230469 19.179688 19.6875 18.832031 C 20.082031 18.535156 20.53125 17.964844 20.429688 16.945312 Z M 10.175781 33.289062 C 9.8125 33.652344 8.480469 34.269531 7.015625 34.433594 C 6.265625 34.519531 5.730469 34.417969 5.546875 34.160156 C 5.394531 33.941406 5.496094 33.621094 5.609375 33.390625 C 5.785156 33.027344 5.984375 32.910156 6.277344 32.910156 C 6.453125 32.910156 6.65625 32.949219 6.90625 33.003906 C 7.132812 33.058594 7.363281 33.097656 7.59375 33.117188 C 7.800781 33.128906 8.003906 33.109375 8.207031 33.066406 C 8.34375 33.179688 8.496094 33.320312 8.527344 33.371094 C 8.566406 33.433594 8.621094 33.464844 8.695312 33.464844 C 8.734375 33.464844 8.769531 33.457031 8.800781 33.4375 C 8.914062 33.367188 8.9375 33.273438 8.867188 33.164062 C 8.808594 33.082031 8.742188 33.007812 8.667969 32.941406 C 8.738281 32.917969 8.808594 32.894531 8.878906 32.867188 C 8.976562 32.945312 9.066406 33.03125 9.148438 33.128906 C 9.1875 33.191406 9.246094 33.226562 9.320312 33.226562 C 9.359375 33.226562 9.390625 33.214844 9.425781 33.195312 C 9.539062 33.125 9.558594 33.035156 9.488281 32.921875 C 9.429688 32.839844 9.363281 32.761719 9.289062 32.695312 C 9.539062 32.582031 9.738281 32.472656 9.839844 32.414062 C 9.8125 32.515625 9.792969 32.574219 9.792969 32.574219 C 9.753906 32.703125 9.796875 32.785156 9.921875 32.828125 C 9.941406 32.832031 9.960938 32.835938 9.984375 32.835938 C 10.078125 32.835938 10.144531 32.789062 10.171875 32.699219 C 10.175781 32.683594 10.207031 32.589844 10.253906 32.429688 L 10.261719 32.445312 C 10.414062 32.664062 10.367188 33.101562 10.175781 33.289062 Z M 13.175781 32.445312 L 13.1875 32.429688 C 13.230469 32.589844 13.261719 32.683594 13.265625 32.699219 C 13.296875 32.789062 13.359375 32.835938 13.457031 32.835938 C 13.476562 32.835938 13.496094 32.832031 13.515625 32.828125 C 13.644531 32.785156 13.6875 32.703125 13.644531 32.574219 C 13.644531 32.574219 13.628906 32.515625 13.597656 32.414062 C 13.703125 32.472656 13.902344 32.582031 14.152344 32.695312 C 14.074219 32.761719 14.007812 32.839844 13.949219 32.921875 C 13.878906 33.035156 13.902344 33.125 14.015625 33.195312 C 14.046875 33.214844 14.082031 33.226562 14.117188 33.226562 C 14.191406 33.226562 14.25 33.191406 14.289062 33.128906 C 14.371094 33.035156 14.460938 32.945312 14.558594 32.867188 C 14.628906 32.890625 14.699219 32.917969 14.769531 32.941406 C 14.695312 33.007812 14.628906 33.082031 14.570312 33.164062 C 14.503906 33.273438 14.523438 33.367188 14.636719 33.4375 C 14.667969 33.457031 14.703125 33.464844 14.742188 33.464844 C 14.816406 33.464844 14.875 33.433594 14.914062 33.371094 C 14.945312 33.320312 15.097656 33.179688 15.230469 33.066406 C 15.394531 33.101562 15.558594 33.121094 15.726562 33.121094 C 15.765625 33.121094 15.804688 33.121094 15.84375 33.117188 C 16.074219 33.097656 16.304688 33.058594 16.53125 33.003906 C 17.210938 32.859375 17.546875 32.8125 17.828125 33.390625 C 17.941406 33.621094 18.042969 33.945312 17.890625 34.15625 C 17.707031 34.417969 17.171875 34.519531 16.421875 34.433594 C 14.957031 34.269531 13.621094 33.652344 13.257812 33.289062 C 13.070312 33.101562 13.023438 32.664062 13.171875 32.445312 Z M 16.242188 20.914062 C 15.597656 22 14.800781 23.71875 14.65625 25.714844 C 14.644531 25.878906 14.628906 26.039062 14.605469 26.191406 C 14.425781 27.433594 13.921875 28.300781 13.101562 28.785156 C 12.675781 29.03125 12.222656 29.15625 11.730469 29.15625 L 11.707031 29.15625 C 11.222656 29.15625 10.773438 29.035156 10.355469 28.792969 C 9.421875 28.257812 8.890625 27.21875 8.78125 25.714844 C 8.636719 23.714844 7.839844 22 7.195312 20.910156 C 6.863281 20.34375 6.484375 19.804688 6.066406 19.292969 C 6.136719 19.277344 6.203125 19.261719 6.265625 19.242188 C 6.289062 19.269531 6.316406 19.300781 6.34375 19.332031 C 6.558594 19.570312 6.902344 19.835938 7.429688 19.996094 C 7.652344 20.324219 8.734375 21.835938 9.667969 22.0625 C 9.878906 22.117188 10.078125 22.082031 10.261719 21.960938 C 10.578125 21.761719 10.867188 21.316406 11.113281 20.644531 C 11.21875 20.351562 11.292969 20.078125 11.335938 19.90625 C 11.59375 19.945312 11.847656 19.945312 12.101562 19.90625 C 12.144531 20.078125 12.21875 20.347656 12.324219 20.644531 C 12.570312 21.316406 12.859375 21.757812 13.175781 21.960938 C 13.359375 22.085938 13.558594 22.121094 13.769531 22.066406 C 14.703125 21.839844 15.785156 20.328125 16.007812 20 C 16.535156 19.839844 16.878906 19.570312 17.09375 19.332031 C 17.121094 19.304688 17.148438 19.273438 17.171875 19.242188 C 17.234375 19.261719 17.300781 19.28125 17.371094 19.296875 C 16.953125 19.804688 16.578125 20.34375 16.242188 20.914062 Z M 8.007812 20.117188 C 8.164062 20.136719 8.324219 20.144531 8.484375 20.144531 C 9.332031 20.144531 9.949219 19.949219 10.320312 19.566406 C 10.523438 19.671875 10.730469 19.753906 10.949219 19.820312 C 10.8125 20.355469 10.488281 21.347656 10.046875 21.625 C 9.960938 21.683594 9.863281 21.703125 9.761719 21.679688 C 9.191406 21.539062 8.453125 20.703125 8.007812 20.117188 Z M 12.488281 19.820312 C 12.707031 19.753906 12.914062 19.671875 13.117188 19.566406 C 13.488281 19.949219 14.105469 20.144531 14.953125 20.144531 C 15.113281 20.144531 15.273438 20.136719 15.429688 20.117188 C 14.988281 20.703125 14.25 21.539062 13.675781 21.679688 C 13.574219 21.703125 13.476562 21.683594 13.390625 21.625 C 12.953125 21.347656 12.625 20.351562 12.488281 19.816406 Z M 19.449219 18.519531 C 18.855469 18.972656 17.957031 19.023438 17.402344 18.890625 C 17.472656 18.765625 17.523438 18.632812 17.554688 18.492188 C 17.585938 18.359375 17.53125 18.28125 17.398438 18.253906 C 17.265625 18.226562 17.1875 18.28125 17.164062 18.414062 C 17.160156 18.425781 16.875 19.746094 14.953125 19.746094 C 14.21875 19.746094 13.675781 19.582031 13.390625 19.277344 C 13.238281 19.121094 13.164062 18.9375 13.160156 18.722656 C 13.160156 18.710938 13.160156 18.699219 13.160156 18.6875 C 13.164062 18.554688 13.101562 18.488281 12.96875 18.484375 C 12.835938 18.480469 12.765625 18.542969 12.761719 18.675781 C 12.753906 18.875 12.796875 19.0625 12.882812 19.238281 C 12.648438 19.355469 12.203125 19.539062 11.71875 19.539062 C 11.238281 19.539062 10.789062 19.355469 10.554688 19.238281 C 10.644531 19.0625 10.683594 18.875 10.675781 18.675781 C 10.664062 18.546875 10.59375 18.484375 10.460938 18.496094 C 10.328125 18.507812 10.265625 18.582031 10.277344 18.714844 C 10.277344 18.929688 10.203125 19.113281 10.054688 19.269531 C 9.769531 19.582031 9.226562 19.746094 8.488281 19.746094 C 8.195312 19.75 7.910156 19.714844 7.625 19.644531 C 7.617188 19.640625 7.605469 19.636719 7.59375 19.636719 C 7.230469 19.539062 6.917969 19.355469 6.65625 19.082031 C 6.472656 18.890625 6.347656 18.667969 6.277344 18.414062 C 6.246094 18.289062 6.167969 18.242188 6.042969 18.265625 C 5.917969 18.292969 5.867188 18.367188 5.886719 18.492188 C 5.917969 18.632812 5.96875 18.765625 6.039062 18.894531 C 5.484375 19.023438 4.585938 18.972656 3.992188 18.523438 C 3.535156 18.171875 3.339844 17.65625 3.40625 16.984375 C 3.488281 16.175781 3.863281 15.628906 4.523438 15.359375 C 4.757812 15.265625 5.003906 15.207031 5.253906 15.191406 C 5.246094 15.210938 5.242188 15.230469 5.234375 15.253906 C 5.191406 15.378906 5.234375 15.460938 5.359375 15.503906 C 5.378906 15.511719 5.402344 15.515625 5.421875 15.515625 C 5.519531 15.515625 5.582031 15.46875 5.613281 15.375 C 5.902344 14.503906 6.523438 13.980469 7.46875 13.820312 C 7.835938 13.757812 8.207031 13.75 8.574219 13.796875 C 8.496094 13.945312 8.433594 14.105469 8.390625 14.269531 C 8.359375 14.398438 8.40625 14.480469 8.535156 14.511719 C 8.550781 14.515625 8.566406 14.519531 8.585938 14.519531 C 8.6875 14.519531 8.75 14.46875 8.777344 14.371094 C 8.832031 14.152344 8.925781 13.953125 9.054688 13.769531 C 9.058594 13.765625 9.0625 13.761719 9.066406 13.753906 C 9.347656 13.367188 9.789062 13.078125 10.386719 12.890625 C 10.820312 12.757812 11.265625 12.6875 11.71875 12.683594 L 11.726562 12.683594 C 11.75 12.683594 14.21875 12.664062 14.664062 14.367188 C 14.691406 14.46875 14.757812 14.519531 14.859375 14.515625 C 14.875 14.515625 14.894531 14.515625 14.910156 14.511719 C 15.039062 14.476562 15.085938 14.394531 15.050781 14.269531 C 15.007812 14.101562 14.949219 13.945312 14.871094 13.796875 C 15.238281 13.75 15.609375 13.757812 15.976562 13.816406 C 16.917969 13.976562 17.539062 14.503906 17.828125 15.375 C 17.859375 15.46875 17.921875 15.515625 18.019531 15.515625 C 18.039062 15.515625 18.0625 15.511719 18.082031 15.503906 C 18.207031 15.460938 18.25 15.378906 18.207031 15.253906 C 18.203125 15.230469 18.195312 15.210938 18.1875 15.191406 C 18.4375 15.210938 18.683594 15.265625 18.917969 15.359375 C 19.578125 15.632812 19.953125 16.179688 20.035156 16.988281 C 20.097656 17.65625 19.902344 18.171875 19.449219 18.519531 Z M 19.449219 18.519531 " fill-opacity="1" fill-rule="nonzero"/></g><g fill="#062925" fill-opacity="1"><g transform="translate(20.486992, 25.452095)"><g><path d="M 3.03125 -3.84375 C 3.113281 -3.820312 3.1875 -3.800781 3.25 -3.78125 C 3.320312 -3.757812 3.382812 -3.734375 3.4375 -3.703125 C 3.5625 -3.617188 3.625 -3.519531 3.625 -3.40625 C 3.625 -3.363281 3.625 -3.320312 3.625 -3.28125 C 3.625 -3.25 3.617188 -3.210938 3.609375 -3.171875 C 3.609375 -3.140625 3.609375 -3.109375 3.609375 -3.078125 C 3.585938 -2.960938 3.546875 -2.851562 3.484375 -2.75 C 3.398438 -2.59375 3.304688 -2.515625 3.203125 -2.515625 C 3.128906 -2.515625 3.0625 -2.523438 3 -2.546875 C 2.9375 -2.566406 2.875 -2.585938 2.8125 -2.609375 C 2.75 -2.628906 2.675781 -2.644531 2.59375 -2.65625 C 2.507812 -2.664062 2.414062 -2.664062 2.3125 -2.65625 C 2.207031 -2.65625 2.101562 -2.644531 2 -2.625 C 1.90625 -2.601562 1.816406 -2.570312 1.734375 -2.53125 C 1.640625 -2.488281 1.554688 -2.4375 1.484375 -2.375 C 1.421875 -2.3125 1.363281 -2.238281 1.3125 -2.15625 C 1.21875 -1.988281 1.222656 -1.765625 1.328125 -1.484375 C 1.390625 -1.273438 1.53125 -1.128906 1.75 -1.046875 C 1.96875 -0.953125 2.195312 -0.914062 2.4375 -0.9375 C 2.613281 -0.957031 2.796875 -1.023438 2.984375 -1.140625 C 3.066406 -1.191406 3.144531 -1.21875 3.21875 -1.21875 C 3.300781 -1.226562 3.378906 -1.210938 3.453125 -1.171875 C 3.535156 -1.128906 3.609375 -1.070312 3.671875 -1 C 3.703125 -0.976562 3.722656 -0.953125 3.734375 -0.921875 C 3.753906 -0.898438 3.765625 -0.875 3.765625 -0.84375 C 3.773438 -0.820312 3.78125 -0.796875 3.78125 -0.765625 C 3.78125 -0.742188 3.773438 -0.71875 3.765625 -0.6875 C 3.753906 -0.664062 3.738281 -0.640625 3.71875 -0.609375 C 3.707031 -0.585938 3.691406 -0.566406 3.671875 -0.546875 C 3.546875 -0.421875 3.4375 -0.320312 3.34375 -0.25 C 3.3125 -0.226562 3.28125 -0.207031 3.25 -0.1875 C 3.21875 -0.164062 3.1875 -0.148438 3.15625 -0.140625 C 2.96875 -0.046875 2.785156 0.0078125 2.609375 0.03125 C 2.429688 0.0507812 2.253906 0.0507812 2.078125 0.03125 C 1.835938 0.0078125 1.613281 -0.0390625 1.40625 -0.125 C 1.3125 -0.164062 1.222656 -0.207031 1.140625 -0.25 C 1.066406 -0.289062 0.988281 -0.34375 0.90625 -0.40625 C 0.75 -0.507812 0.613281 -0.644531 0.5 -0.8125 C 0.269531 -1.113281 0.117188 -1.445312 0.046875 -1.8125 C -0.0664062 -2.375 0.0703125 -2.847656 0.46875 -3.234375 C 0.664062 -3.429688 0.890625 -3.578125 1.140625 -3.671875 C 1.378906 -3.765625 1.613281 -3.828125 1.84375 -3.859375 C 1.945312 -3.878906 2.046875 -3.890625 2.140625 -3.890625 C 2.234375 -3.898438 2.332031 -3.90625 2.4375 -3.90625 C 2.539062 -3.90625 2.640625 -3.898438 2.734375 -3.890625 C 2.835938 -3.878906 2.9375 -3.863281 3.03125 -3.84375 Z M 3.03125 -3.84375 "/></g></g></g><g fill="#062925" fill-opacity="1"><g transform="translate(24.393079, 25.452095)"><g><path d="M 2.1875 -0.875 C 2.0625 -0.832031 1.90625 -0.796875 1.71875 -0.765625 C 1.613281 -0.753906 1.519531 -0.742188 1.4375 -0.734375 C 1.351562 -0.734375 1.273438 -0.734375 1.203125 -0.734375 C 1.160156 -0.566406 1.132812 -0.421875 1.125 -0.296875 C 1.101562 -0.210938 1.078125 -0.144531 1.046875 -0.09375 C 1.023438 -0.0390625 0.984375 -0.00390625 0.921875 0.015625 C 0.835938 0.046875 0.734375 0.046875 0.609375 0.015625 C 0.535156 0.00390625 0.445312 -0.015625 0.34375 -0.046875 C 0.25 -0.0859375 0.164062 -0.132812 0.09375 -0.1875 C 0.0820312 -0.195312 0.0703125 -0.207031 0.0625 -0.21875 C 0.0507812 -0.238281 0.0390625 -0.253906 0.03125 -0.265625 C 0.0195312 -0.273438 0.0078125 -0.285156 0 -0.296875 C 0 -0.316406 -0.00390625 -0.332031 -0.015625 -0.34375 C -0.0234375 -0.363281 -0.03125 -0.382812 -0.03125 -0.40625 C -0.0507812 -0.46875 -0.0625 -0.535156 -0.0625 -0.609375 C -0.0625 -0.628906 -0.0625 -0.648438 -0.0625 -0.671875 C -0.0625 -0.691406 -0.0625 -0.710938 -0.0625 -0.734375 C -0.0625 -0.753906 -0.0625 -0.773438 -0.0625 -0.796875 C -0.0507812 -0.960938 -0.015625 -1.179688 0.046875 -1.453125 C 0.109375 -1.703125 0.179688 -1.960938 0.265625 -2.234375 C 0.347656 -2.515625 0.441406 -2.78125 0.546875 -3.03125 C 0.648438 -3.28125 0.753906 -3.484375 0.859375 -3.640625 C 0.878906 -3.660156 0.894531 -3.6875 0.90625 -3.71875 C 0.925781 -3.75 0.945312 -3.773438 0.96875 -3.796875 C 0.988281 -3.828125 1.015625 -3.851562 1.046875 -3.875 C 1.128906 -3.96875 1.222656 -4.023438 1.328125 -4.046875 C 1.378906 -4.054688 1.4375 -4.0625 1.5 -4.0625 C 1.570312 -4.0625 1.648438 -4.054688 1.734375 -4.046875 C 1.898438 -4.015625 2.023438 -3.960938 2.109375 -3.890625 C 2.191406 -3.847656 2.269531 -3.785156 2.34375 -3.703125 C 2.414062 -3.617188 2.488281 -3.507812 2.5625 -3.375 C 2.71875 -3.113281 2.859375 -2.828125 2.984375 -2.515625 C 3.023438 -2.410156 3.0625 -2.304688 3.09375 -2.203125 C 3.132812 -2.097656 3.171875 -1.992188 3.203125 -1.890625 C 3.242188 -1.785156 3.28125 -1.6875 3.3125 -1.59375 C 3.394531 -1.289062 3.445312 -1.0625 3.46875 -0.90625 C 3.488281 -0.75 3.492188 -0.617188 3.484375 -0.515625 C 3.460938 -0.421875 3.425781 -0.347656 3.375 -0.296875 C 3.3125 -0.234375 3.234375 -0.175781 3.140625 -0.125 C 3.046875 -0.0820312 2.957031 -0.0507812 2.875 -0.03125 C 2.75 0 2.644531 0.00390625 2.5625 -0.015625 C 2.457031 -0.046875 2.382812 -0.140625 2.34375 -0.296875 C 2.300781 -0.472656 2.25 -0.664062 2.1875 -0.875 Z M 1.34375 -1.359375 C 1.550781 -1.359375 1.765625 -1.382812 1.984375 -1.4375 C 1.878906 -1.695312 1.765625 -1.953125 1.640625 -2.203125 C 1.535156 -1.941406 1.4375 -1.660156 1.34375 -1.359375 Z M 1.34375 -1.359375 "/></g></g></g><g fill="#062925" fill-opacity="1"><g transform="translate(28.010951, 25.452095)"><g><path d="M 0.5625 -0.1875 C 0.488281 -0.195312 0.429688 -0.210938 0.390625 -0.234375 C 0.316406 -0.265625 0.257812 -0.316406 0.21875 -0.390625 C 0.164062 -0.472656 0.125 -0.585938 0.09375 -0.734375 C 0.0507812 -0.890625 0.0195312 -1.085938 0 -1.328125 C -0.0078125 -1.578125 -0.015625 -1.832031 -0.015625 -2.09375 C -0.015625 -2.363281 0 -2.625 0.03125 -2.875 C 0.0507812 -3.125 0.0859375 -3.332031 0.140625 -3.5 C 0.148438 -3.539062 0.160156 -3.582031 0.171875 -3.625 C 0.191406 -3.664062 0.210938 -3.707031 0.234375 -3.75 C 0.285156 -3.851562 0.359375 -3.929688 0.453125 -3.984375 C 0.492188 -4.003906 0.570312 -4.023438 0.6875 -4.046875 C 0.800781 -4.066406 0.910156 -4.078125 1.015625 -4.078125 C 1.140625 -4.066406 1.242188 -4.039062 1.328125 -4 C 1.429688 -3.957031 1.484375 -3.878906 1.484375 -3.765625 C 1.484375 -3.710938 1.472656 -3.660156 1.453125 -3.609375 C 1.441406 -3.585938 1.429688 -3.566406 1.421875 -3.546875 C 1.421875 -3.523438 1.421875 -3.503906 1.421875 -3.484375 C 1.378906 -3.367188 1.34375 -3.25 1.3125 -3.125 C 1.289062 -3 1.269531 -2.867188 1.25 -2.734375 C 1.238281 -2.597656 1.226562 -2.457031 1.21875 -2.3125 C 1.1875 -1.894531 1.1875 -1.492188 1.21875 -1.109375 C 1.445312 -1.085938 1.664062 -1.078125 1.875 -1.078125 C 2.09375 -1.085938 2.332031 -1.128906 2.59375 -1.203125 C 2.613281 -1.203125 2.628906 -1.207031 2.640625 -1.21875 C 2.660156 -1.226562 2.679688 -1.234375 2.703125 -1.234375 C 2.753906 -1.242188 2.800781 -1.25 2.84375 -1.25 C 2.945312 -1.25 3.019531 -1.207031 3.0625 -1.125 C 3.101562 -1.050781 3.117188 -0.953125 3.109375 -0.828125 C 3.097656 -0.578125 3.066406 -0.410156 3.015625 -0.328125 C 2.960938 -0.242188 2.890625 -0.1875 2.796875 -0.15625 C 2.710938 -0.113281 2.632812 -0.0859375 2.5625 -0.078125 C 2.28125 -0.00390625 1.953125 0.015625 1.578125 -0.015625 C 1.210938 -0.0351562 0.894531 -0.0859375 0.625 -0.171875 C 0.613281 -0.171875 0.601562 -0.171875 0.59375 -0.171875 C 0.582031 -0.171875 0.570312 -0.175781 0.5625 -0.1875 Z M 0.5625 -0.1875 "/></g></g></g><g fill="#062925" fill-opacity="1"><g transform="translate(31.236948, 25.452095)"><g><path d="M 0.765625 -3.890625 C 1.046875 -3.941406 1.378906 -3.96875 1.765625 -3.96875 C 2.148438 -3.976562 2.488281 -3.9375 2.78125 -3.84375 C 2.8125 -3.832031 2.835938 -3.820312 2.859375 -3.8125 C 2.890625 -3.800781 2.914062 -3.789062 2.9375 -3.78125 C 2.96875 -3.769531 2.992188 -3.757812 3.015625 -3.75 C 3.109375 -3.707031 3.179688 -3.644531 3.234375 -3.5625 C 3.273438 -3.46875 3.296875 -3.296875 3.296875 -3.046875 C 3.296875 -3.035156 3.296875 -3.023438 3.296875 -3.015625 C 3.296875 -3.003906 3.296875 -2.992188 3.296875 -2.984375 C 3.285156 -2.878906 3.253906 -2.796875 3.203125 -2.734375 C 3.160156 -2.671875 3.09375 -2.640625 3 -2.640625 C 2.976562 -2.640625 2.957031 -2.640625 2.9375 -2.640625 C 2.914062 -2.648438 2.890625 -2.660156 2.859375 -2.671875 C 2.816406 -2.679688 2.78125 -2.695312 2.75 -2.71875 C 2.695312 -2.726562 2.648438 -2.738281 2.609375 -2.75 C 2.566406 -2.769531 2.523438 -2.785156 2.484375 -2.796875 C 2.441406 -2.804688 2.398438 -2.8125 2.359375 -2.8125 C 2.316406 -2.820312 2.273438 -2.832031 2.234375 -2.84375 C 2.191406 -2.851562 2.148438 -2.859375 2.109375 -2.859375 C 2.066406 -2.867188 2.03125 -2.875 2 -2.875 C 1.78125 -2.90625 1.550781 -2.914062 1.3125 -2.90625 C 1.300781 -2.820312 1.289062 -2.738281 1.28125 -2.65625 C 1.269531 -2.570312 1.257812 -2.488281 1.25 -2.40625 C 1.300781 -2.40625 1.347656 -2.398438 1.390625 -2.390625 C 1.441406 -2.390625 1.488281 -2.390625 1.53125 -2.390625 C 1.582031 -2.390625 1.628906 -2.390625 1.671875 -2.390625 C 1.722656 -2.390625 1.769531 -2.390625 1.8125 -2.390625 C 2.007812 -2.378906 2.148438 -2.367188 2.234375 -2.359375 C 2.328125 -2.335938 2.390625 -2.289062 2.421875 -2.21875 C 2.460938 -2.144531 2.476562 -2.050781 2.46875 -1.9375 C 2.4375 -1.726562 2.390625 -1.59375 2.328125 -1.53125 C 2.253906 -1.445312 2.09375 -1.394531 1.84375 -1.375 C 1.738281 -1.375 1.632812 -1.375 1.53125 -1.375 C 1.4375 -1.375 1.335938 -1.375 1.234375 -1.375 C 1.253906 -1.0625 1.296875 -0.78125 1.359375 -0.53125 C 1.359375 -0.507812 1.363281 -0.488281 1.375 -0.46875 C 1.382812 -0.445312 1.390625 -0.425781 1.390625 -0.40625 C 1.410156 -0.351562 1.421875 -0.300781 1.421875 -0.25 C 1.421875 -0.1875 1.398438 -0.132812 1.359375 -0.09375 C 1.328125 -0.0625 1.285156 -0.0351562 1.234375 -0.015625 C 1.140625 0.015625 1.035156 0.03125 0.921875 0.03125 C 0.796875 0.03125 0.679688 0.015625 0.578125 -0.015625 C 0.460938 -0.0351562 0.378906 -0.0625 0.328125 -0.09375 C 0.234375 -0.15625 0.164062 -0.238281 0.125 -0.34375 C 0.0820312 -0.4375 0.0507812 -0.523438 0.03125 -0.609375 C 0.0078125 -0.691406 -0.00390625 -0.785156 -0.015625 -0.890625 C -0.0234375 -0.992188 -0.03125 -1.109375 -0.03125 -1.234375 C -0.0390625 -1.484375 -0.0390625 -1.738281 -0.03125 -2 C -0.0195312 -2.269531 0 -2.523438 0.03125 -2.765625 C 0.0703125 -3.015625 0.117188 -3.210938 0.171875 -3.359375 C 0.210938 -3.492188 0.265625 -3.601562 0.328125 -3.6875 C 0.367188 -3.757812 0.429688 -3.8125 0.515625 -3.84375 C 0.535156 -3.84375 0.554688 -3.84375 0.578125 -3.84375 C 0.597656 -3.851562 0.617188 -3.859375 0.640625 -3.859375 C 0.679688 -3.867188 0.722656 -3.878906 0.765625 -3.890625 Z M 0.765625 -3.890625 "/></g></g></g><g fill="#062925" fill-opacity="1"><g transform="translate(34.637394, 25.452095)"><g><path d="M 0.046875 -2.1875 C 0.0546875 -2.257812 0.0703125 -2.375 0.09375 -2.53125 C 0.113281 -2.6875 0.144531 -2.84375 0.1875 -3 C 0.226562 -3.15625 0.28125 -3.296875 0.34375 -3.421875 C 0.351562 -3.453125 0.363281 -3.476562 0.375 -3.5 C 0.394531 -3.519531 0.410156 -3.535156 0.421875 -3.546875 C 0.441406 -3.566406 0.460938 -3.582031 0.484375 -3.59375 C 0.503906 -3.613281 0.523438 -3.625 0.546875 -3.625 C 0.566406 -3.632812 0.585938 -3.640625 0.609375 -3.640625 C 0.742188 -3.648438 0.929688 -3.632812 1.171875 -3.59375 C 1.410156 -3.550781 1.578125 -3.46875 1.671875 -3.34375 C 1.691406 -3.332031 1.703125 -3.3125 1.703125 -3.28125 C 1.710938 -3.257812 1.710938 -3.234375 1.703125 -3.203125 C 1.703125 -3.179688 1.695312 -3.15625 1.6875 -3.125 C 1.6875 -3.101562 1.679688 -3.078125 1.671875 -3.046875 C 1.648438 -2.984375 1.628906 -2.929688 1.609375 -2.890625 C 1.597656 -2.847656 1.59375 -2.8125 1.59375 -2.78125 C 1.53125 -2.59375 1.472656 -2.390625 1.421875 -2.171875 C 1.398438 -2.097656 1.382812 -2.023438 1.375 -1.953125 C 1.363281 -1.878906 1.359375 -1.8125 1.359375 -1.75 C 1.367188 -1.6875 1.378906 -1.625 1.390625 -1.5625 C 1.398438 -1.53125 1.40625 -1.5 1.40625 -1.46875 C 1.414062 -1.445312 1.425781 -1.429688 1.4375 -1.421875 C 1.457031 -1.378906 1.484375 -1.351562 1.515625 -1.34375 C 1.546875 -1.332031 1.59375 -1.34375 1.65625 -1.375 C 1.820312 -1.46875 1.941406 -1.570312 2.015625 -1.6875 C 2.054688 -1.769531 2.097656 -1.875 2.140625 -2 C 2.179688 -2.175781 2.21875 -2.375 2.25 -2.59375 C 2.257812 -2.695312 2.265625 -2.796875 2.265625 -2.890625 C 2.265625 -2.992188 2.257812 -3.09375 2.25 -3.1875 C 2.238281 -3.195312 2.234375 -3.207031 2.234375 -3.21875 C 2.234375 -3.226562 2.234375 -3.238281 2.234375 -3.25 C 2.234375 -3.257812 2.234375 -3.269531 2.234375 -3.28125 C 2.234375 -3.289062 2.234375 -3.300781 2.234375 -3.3125 C 2.234375 -3.320312 2.226562 -3.332031 2.21875 -3.34375 C 2.21875 -3.414062 2.226562 -3.484375 2.25 -3.546875 C 2.269531 -3.585938 2.296875 -3.625 2.328125 -3.65625 C 2.398438 -3.726562 2.523438 -3.796875 2.703125 -3.859375 C 2.867188 -3.921875 3.019531 -3.941406 3.15625 -3.921875 C 3.195312 -3.910156 3.234375 -3.890625 3.265625 -3.859375 C 3.296875 -3.835938 3.320312 -3.804688 3.34375 -3.765625 C 3.4375 -3.546875 3.460938 -3.242188 3.421875 -2.859375 C 3.378906 -2.472656 3.332031 -2.171875 3.28125 -1.953125 C 3.21875 -1.640625 3.113281 -1.332031 2.96875 -1.03125 C 2.894531 -0.875 2.804688 -0.726562 2.703125 -0.59375 C 2.597656 -0.46875 2.476562 -0.359375 2.34375 -0.265625 C 2.21875 -0.171875 2.082031 -0.0976562 1.9375 -0.046875 C 1.789062 0.00390625 1.640625 0.03125 1.484375 0.03125 C 1.242188 0.0507812 1.003906 0.015625 0.765625 -0.078125 C 0.523438 -0.179688 0.335938 -0.34375 0.203125 -0.5625 C 0.0664062 -0.789062 0 -1.0625 0 -1.375 C 0 -1.675781 0.015625 -1.945312 0.046875 -2.1875 Z M 0.046875 -2.1875 "/></g></g></g><g fill="#062925" fill-opacity="1"><g transform="translate(38.222398, 25.452095)"><g><path d="M 0.34375 -3.671875 C 0.382812 -3.679688 0.429688 -3.691406 0.484375 -3.703125 C 0.484375 -3.710938 0.488281 -3.71875 0.5 -3.71875 C 0.507812 -3.71875 0.515625 -3.71875 0.515625 -3.71875 C 0.523438 -3.726562 0.535156 -3.734375 0.546875 -3.734375 C 0.554688 -3.734375 0.566406 -3.734375 0.578125 -3.734375 C 0.585938 -3.742188 0.59375 -3.75 0.59375 -3.75 C 0.875 -3.84375 1.210938 -3.914062 1.609375 -3.96875 C 2.003906 -4.019531 2.359375 -4.023438 2.671875 -3.984375 C 2.753906 -3.972656 2.84375 -3.953125 2.9375 -3.921875 C 3.03125 -3.898438 3.109375 -3.851562 3.171875 -3.78125 C 3.234375 -3.695312 3.28125 -3.535156 3.3125 -3.296875 C 3.3125 -3.285156 3.3125 -3.273438 3.3125 -3.265625 C 3.320312 -3.265625 3.328125 -3.257812 3.328125 -3.25 C 3.328125 -3.25 3.328125 -3.242188 3.328125 -3.234375 C 3.335938 -3.128906 3.316406 -3.039062 3.265625 -2.96875 C 3.222656 -2.90625 3.160156 -2.867188 3.078125 -2.859375 C 3.046875 -2.859375 3.015625 -2.859375 2.984375 -2.859375 C 2.960938 -2.859375 2.941406 -2.863281 2.921875 -2.875 C 2.898438 -2.875 2.878906 -2.875 2.859375 -2.875 C 2.835938 -2.882812 2.816406 -2.890625 2.796875 -2.890625 C 2.515625 -2.929688 2.25 -2.953125 2 -2.953125 C 1.769531 -2.941406 1.535156 -2.914062 1.296875 -2.875 C 1.285156 -2.707031 1.285156 -2.546875 1.296875 -2.390625 C 1.398438 -2.398438 1.5 -2.410156 1.59375 -2.421875 C 1.695312 -2.429688 1.796875 -2.441406 1.890625 -2.453125 C 2.085938 -2.472656 2.226562 -2.484375 2.3125 -2.484375 C 2.40625 -2.472656 2.476562 -2.4375 2.53125 -2.375 C 2.582031 -2.3125 2.609375 -2.222656 2.609375 -2.109375 C 2.609375 -1.898438 2.582031 -1.757812 2.53125 -1.6875 C 2.507812 -1.65625 2.472656 -1.625 2.421875 -1.59375 C 2.378906 -1.570312 2.328125 -1.550781 2.265625 -1.53125 C 2.210938 -1.519531 2.144531 -1.503906 2.0625 -1.484375 C 1.957031 -1.460938 1.847656 -1.441406 1.734375 -1.421875 C 1.628906 -1.410156 1.53125 -1.398438 1.4375 -1.390625 C 1.457031 -1.273438 1.484375 -1.15625 1.515625 -1.03125 C 1.523438 -1.03125 1.53125 -1.03125 1.53125 -1.03125 C 1.539062 -1.039062 1.546875 -1.046875 1.546875 -1.046875 C 1.554688 -1.046875 1.5625 -1.046875 1.5625 -1.046875 C 1.570312 -1.046875 1.578125 -1.046875 1.578125 -1.046875 C 1.585938 -1.046875 1.59375 -1.046875 1.59375 -1.046875 C 1.644531 -1.046875 1.703125 -1.050781 1.765625 -1.0625 C 1.878906 -1.070312 1.992188 -1.082031 2.109375 -1.09375 C 2.234375 -1.101562 2.351562 -1.117188 2.46875 -1.140625 C 2.6875 -1.179688 2.894531 -1.234375 3.09375 -1.296875 C 3.101562 -1.296875 3.109375 -1.296875 3.109375 -1.296875 C 3.117188 -1.296875 3.125 -1.296875 3.125 -1.296875 C 3.132812 -1.304688 3.144531 -1.3125 3.15625 -1.3125 C 3.175781 -1.320312 3.195312 -1.328125 3.21875 -1.328125 C 3.25 -1.335938 3.273438 -1.34375 3.296875 -1.34375 C 3.316406 -1.351562 3.335938 -1.359375 3.359375 -1.359375 C 3.410156 -1.367188 3.457031 -1.359375 3.5 -1.328125 C 3.539062 -1.304688 3.570312 -1.273438 3.59375 -1.234375 C 3.601562 -1.222656 3.609375 -1.207031 3.609375 -1.1875 C 3.617188 -1.175781 3.625 -1.160156 3.625 -1.140625 C 3.632812 -1.117188 3.640625 -1.097656 3.640625 -1.078125 C 3.648438 -1.066406 3.65625 -1.050781 3.65625 -1.03125 C 3.664062 -1.007812 3.671875 -0.988281 3.671875 -0.96875 C 3.671875 -0.863281 3.664062 -0.769531 3.65625 -0.6875 C 3.644531 -0.601562 3.625 -0.53125 3.59375 -0.46875 C 3.582031 -0.445312 3.566406 -0.425781 3.546875 -0.40625 C 3.523438 -0.382812 3.5 -0.363281 3.46875 -0.34375 C 3.445312 -0.320312 3.421875 -0.304688 3.390625 -0.296875 C 3.359375 -0.273438 3.320312 -0.253906 3.28125 -0.234375 C 3.238281 -0.222656 3.191406 -0.207031 3.140625 -0.1875 C 3.054688 -0.164062 2.96875 -0.144531 2.875 -0.125 C 2.78125 -0.101562 2.671875 -0.0859375 2.546875 -0.078125 C 2.429688 -0.0664062 2.3125 -0.0546875 2.1875 -0.046875 C 2.070312 -0.0351562 1.953125 -0.0234375 1.828125 -0.015625 C 1.679688 -0.00390625 1.488281 0.00390625 1.25 0.015625 C 1.125 0.0234375 1.007812 0.0234375 0.90625 0.015625 C 0.8125 0.00390625 0.734375 -0.0078125 0.671875 -0.03125 C 0.566406 -0.0703125 0.488281 -0.140625 0.4375 -0.234375 C 0.425781 -0.253906 0.410156 -0.273438 0.390625 -0.296875 C 0.378906 -0.316406 0.367188 -0.335938 0.359375 -0.359375 C 0.347656 -0.378906 0.335938 -0.398438 0.328125 -0.421875 C 0.316406 -0.441406 0.3125 -0.460938 0.3125 -0.484375 C 0.25 -0.640625 0.191406 -0.835938 0.140625 -1.078125 C 0.0976562 -1.316406 0.0625 -1.5625 0.03125 -1.8125 C 0.0078125 -2.070312 0 -2.320312 0 -2.5625 C 0 -2.800781 0.015625 -3 0.046875 -3.15625 C 0.078125 -3.300781 0.117188 -3.414062 0.171875 -3.5 C 0.210938 -3.570312 0.269531 -3.628906 0.34375 -3.671875 Z M 0.34375 -3.671875 "/></g></g></g><g fill="#062925" fill-opacity="1"><g transform="translate(42.034941, 25.452095)"><g><path d="M 0.5625 -0.1875 C 0.488281 -0.195312 0.429688 -0.210938 0.390625 -0.234375 C 0.316406 -0.265625 0.257812 -0.316406 0.21875 -0.390625 C 0.164062 -0.472656 0.125 -0.585938 0.09375 -0.734375 C 0.0507812 -0.890625 0.0195312 -1.085938 0 -1.328125 C -0.0078125 -1.578125 -0.015625 -1.832031 -0.015625 -2.09375 C -0.015625 -2.363281 0 -2.625 0.03125 -2.875 C 0.0507812 -3.125 0.0859375 -3.332031 0.140625 -3.5 C 0.148438 -3.539062 0.160156 -3.582031 0.171875 -3.625 C 0.191406 -3.664062 0.210938 -3.707031 0.234375 -3.75 C 0.285156 -3.851562 0.359375 -3.929688 0.453125 -3.984375 C 0.492188 -4.003906 0.570312 -4.023438 0.6875 -4.046875 C 0.800781 -4.066406 0.910156 -4.078125 1.015625 -4.078125 C 1.140625 -4.066406 1.242188 -4.039062 1.328125 -4 C 1.429688 -3.957031 1.484375 -3.878906 1.484375 -3.765625 C 1.484375 -3.710938 1.472656 -3.660156 1.453125 -3.609375 C 1.441406 -3.585938 1.429688 -3.566406 1.421875 -3.546875 C 1.421875 -3.523438 1.421875 -3.503906 1.421875 -3.484375 C 1.378906 -3.367188 1.34375 -3.25 1.3125 -3.125 C 1.289062 -3 1.269531 -2.867188 1.25 -2.734375 C 1.238281 -2.597656 1.226562 -2.457031 1.21875 -2.3125 C 1.1875 -1.894531 1.1875 -1.492188 1.21875 -1.109375 C 1.445312 -1.085938 1.664062 -1.078125 1.875 -1.078125 C 2.09375 -1.085938 2.332031 -1.128906 2.59375 -1.203125 C 2.613281 -1.203125 2.628906 -1.207031 2.640625 -1.21875 C 2.660156 -1.226562 2.679688 -1.234375 2.703125 -1.234375 C 2.753906 -1.242188 2.800781 -1.25 2.84375 -1.25 C 2.945312 -1.25 3.019531 -1.207031 3.0625 -1.125 C 3.101562 -1.050781 3.117188 -0.953125 3.109375 -0.828125 C 3.097656 -0.578125 3.066406 -0.410156 3.015625 -0.328125 C 2.960938 -0.242188 2.890625 -0.1875 2.796875 -0.15625 C 2.710938 -0.113281 2.632812 -0.0859375 2.5625 -0.078125 C 2.28125 -0.00390625 1.953125 0.015625 1.578125 -0.015625 C 1.210938 -0.0351562 0.894531 -0.0859375 0.625 -0.171875 C 0.613281 -0.171875 0.601562 -0.171875 0.59375 -0.171875 C 0.582031 -0.171875 0.570312 -0.175781 0.5625 -0.1875 Z M 0.5625 -0.1875 "/></g></g></g></svg>